<?xml version="1.0" encoding="utf-8"?>
<!-- Generator: Adobe Illustrator 24.3.0, SVG Export Plug-In . SVG Version: 6.00 Build 0)  -->
<svg version="1.1" xmlns="http://www.w3.org/2000/svg" xmlns:xlink="http://www.w3.org/1999/xlink" x="0px" y="0px"
	 viewBox="0 0 789.18 248.88" style="enable-background:new 0 0 789.18 248.88;" xml:space="preserve">
<style type="text/css">
	.st0{fill:#005B8E;}
	.st1{fill:#F79322;}
</style>
<g id="Layer_2">
	<g>
		<path class="st0" d="M138.12,181.55H122.4V84.57h54.72v13.4h-39v30.31h36.55v13.46h-36.55V181.55z"/>
		<path class="st0" d="M348.7,181.55h-15.65v-45.1c0-5.66-1.14-9.88-3.42-12.67c-2.28-2.79-5.89-4.18-10.84-4.18
			c-6.59,0-11.41,1.95-14.46,5.84c-3.05,3.89-4.58,10.41-4.58,19.57v36.55h-15.59v-73.36h12.2l2.19,9.62h0.8
			c2.21-3.49,5.35-6.19,9.42-8.09c4.07-1.9,8.58-2.85,13.53-2.85c17.6,0,26.4,8.95,26.4,26.86V181.55z"/>
		<path class="st0" d="M429.05,182.87c-11.41,0-20.33-3.33-26.76-9.98c-6.43-6.65-9.65-15.82-9.65-27.49
			c0-11.98,2.98-21.4,8.95-28.26c5.97-6.85,14.17-10.28,24.61-10.28c9.69,0,17.33,2.94,22.95,8.82c5.62,5.88,8.42,13.97,8.42,24.28
			v8.42h-48.88c0.22,7.12,2.14,12.59,5.77,16.42c3.62,3.83,8.73,5.74,15.32,5.74c4.33,0,8.37-0.41,12.11-1.23
			c3.74-0.82,7.75-2.18,12.04-4.08v12.67c-3.8,1.81-7.65,3.1-11.54,3.85C438.49,182.5,434.05,182.87,429.05,182.87z M426.2,118.67
			c-4.95,0-8.92,1.57-11.9,4.71c-2.99,3.14-4.77,7.72-5.34,13.73h33.3c-0.09-6.06-1.55-10.65-4.38-13.76
			C435.04,120.23,431.15,118.67,426.2,118.67z"/>
		<path class="st0" d="M531.49,182.87c-11.1,0-19.53-3.24-25.3-9.72c-5.77-6.48-8.66-15.77-8.66-27.89
			c0-12.34,3.02-21.82,9.05-28.46c6.04-6.63,14.76-9.95,26.17-9.95c7.74,0,14.7,1.44,20.89,4.31l-4.71,12.54
			c-6.59-2.56-12.03-3.85-16.32-3.85c-12.69,0-19.04,8.42-19.04,25.27c0,8.22,1.58,14.4,4.74,18.54c3.16,4.13,7.79,6.2,13.9,6.2
			c6.94,0,13.51-1.72,19.7-5.17v13.6c-2.79,1.64-5.76,2.81-8.92,3.52C539.83,182.52,536,182.87,531.49,182.87z"/>
		<path class="st0" d="M660.85,144.73c0,11.98-3.07,21.34-9.22,28.06c-6.15,6.72-14.7,10.08-25.67,10.08
			c-6.85,0-12.91-1.55-18.17-4.64c-5.26-3.09-9.31-7.54-12.14-13.33c-2.83-5.79-4.25-12.51-4.25-20.16
			c0-11.89,3.05-21.18,9.15-27.86c6.1-6.68,14.7-10.02,25.8-10.02c10.61,0,19.01,3.42,25.2,10.25
			C657.76,123.94,660.85,133.15,660.85,144.73z M607.46,144.73c0,16.94,6.26,25.4,18.77,25.4c12.38,0,18.57-8.47,18.57-25.4
			c0-16.76-6.24-25.14-18.71-25.14c-6.54,0-11.29,2.17-14.23,6.5C608.93,130.43,607.46,136.64,607.46,144.73z"/>
		<path class="st0" d="M769.92,181.55h-15.65v-45.1c0-5.66-1.14-9.88-3.42-12.67c-2.28-2.79-5.89-4.18-10.84-4.18
			c-6.59,0-11.41,1.95-14.46,5.84c-3.05,3.89-4.58,10.41-4.58,19.57v36.55h-15.59v-73.36h12.2l2.19,9.62h0.8
			c2.21-3.49,5.35-6.19,9.42-8.09c4.07-1.9,8.58-2.85,13.53-2.85c17.6,0,26.4,8.95,26.4,26.86V181.55z"/>
	</g>
	<g>
		<path class="st1" d="M192.41,201.76c-17.46,15.21-40.26,24.44-65.18,24.44c-54.77,0-99.34-44.57-99.34-99.34
			c0-54.78,44.56-99.34,99.34-99.34c40.42,0,75.28,24.27,90.78,59.01h15.26c-16.3-42.7-57.68-73.11-106.03-73.11
			c-62.56,0-113.45,50.89-113.45,113.45c0,62.56,50.89,113.45,113.45,113.45c33.87,0,64.32-14.93,85.13-38.54H192.41z"/>
		<path class="st1" d="M238.83,106.4h-14.38c0.7,3.33,1.24,6.73,1.59,10.17h14.17C239.9,113.13,239.44,109.74,238.83,106.4z"/>
		<path class="st1" d="M226.57,126.85C226.57,126.85,226.57,126.85,226.57,126.85c0,20.53-6.25,39.62-16.96,55.46h16.56
			c9.23-16.41,14.51-35.33,14.51-55.46c0,0,0,0,0-0.01H226.57z"/>
	</g>
</g>
<g id="Layer_4">
	<g>
		<path class="st0" d="M478.62,199.87h3.88v30.78h19.34v3.58h-23.22V199.87z"/>
		<path class="st0" d="M532.86,199.87v34.36h-3.88v-34.36H532.86z"/>
		<path class="st0" d="M566.78,199.87v34.36h-3.88v-34.36H566.78z"/>
		<path class="st0" d="M599.87,210.63c0.26,0.66,0.74,1.25,1.42,1.79c0.69,0.54,1.64,1.03,2.85,1.48c1.21,0.44,2.76,0.86,4.66,1.25
			c3.83,0.85,6.65,2.03,8.47,3.54s2.72,3.59,2.72,6.24c0,1.48-0.29,2.82-0.87,4.03s-1.38,2.25-2.41,3.1
			c-1.02,0.85-2.25,1.51-3.69,1.97c-1.44,0.46-3.01,0.69-4.71,0.69c-2.75,0-5.26-0.44-7.53-1.33c-2.28-0.89-4.44-2.26-6.5-4.12
			l2.41-2.85c1.8,1.64,3.62,2.86,5.45,3.66c1.83,0.8,3.94,1.2,6.33,1.2c2.32,0,4.18-0.54,5.57-1.62c1.39-1.08,2.09-2.51,2.09-4.28
			c0-0.82-0.13-1.55-0.39-2.19c-0.26-0.64-0.72-1.22-1.38-1.75c-0.66-0.52-1.57-1-2.73-1.43c-1.16-0.43-2.65-0.84-4.45-1.23
			c-1.97-0.43-3.68-0.92-5.14-1.47s-2.67-1.23-3.62-2.02c-0.95-0.79-1.66-1.7-2.12-2.75c-0.46-1.05-0.69-2.29-0.69-3.74
			c0-1.38,0.28-2.64,0.83-3.79c0.56-1.15,1.34-2.14,2.36-2.97c1.01-0.84,2.21-1.49,3.58-1.97c1.38-0.48,2.88-0.71,4.52-0.71
			c2.52,0,4.72,0.35,6.6,1.04s3.71,1.74,5.47,3.13l-2.26,2.99c-1.6-1.31-3.22-2.26-4.83-2.85c-1.62-0.59-3.31-0.88-5.08-0.88
			c-1.11,0-2.12,0.15-3.02,0.44c-0.9,0.29-1.67,0.69-2.31,1.18c-0.64,0.49-1.13,1.08-1.47,1.77s-0.51,1.43-0.51,2.21
			C599.48,209.24,599.61,209.98,599.87,210.63z"/>
		<path class="st0" d="M651.75,199.87v34.36h-3.88v-34.36H651.75z"/>
		<path class="st0" d="M706.73,199.87h3.78v34.36h-3.09l-22.19-28.18v28.18h-3.78v-34.36h3.63l21.65,27.54V199.87z"/>
		<path class="st0" d="M763.7,233.28c-2.34,1.03-4.97,1.54-7.88,1.54c-2.72,0-5.15-0.46-7.29-1.37s-3.98-2.18-5.5-3.78
			c-1.52-1.6-2.68-3.49-3.48-5.64c-0.8-2.16-1.2-4.47-1.2-6.92c0-2.36,0.42-4.61,1.25-6.77c0.83-2.16,2-4.06,3.51-5.69
			c1.5-1.64,3.31-2.94,5.42-3.9c2.11-0.96,4.46-1.45,7.04-1.45c1.44,0,2.76,0.1,3.95,0.29c1.19,0.2,2.31,0.49,3.34,0.88
			s2,0.88,2.9,1.45c0.9,0.57,1.77,1.22,2.63,1.94l-2.5,2.95c-0.65-0.59-1.34-1.12-2.06-1.59s-1.5-0.88-2.33-1.23
			c-0.83-0.34-1.75-0.61-2.75-0.81c-1-0.2-2.1-0.29-3.31-0.29c-1.9,0-3.65,0.38-5.25,1.13c-1.6,0.75-2.98,1.77-4.12,3.05
			c-1.15,1.28-2.05,2.78-2.7,4.5c-0.66,1.72-0.98,3.55-0.98,5.48c0,2.07,0.32,3.98,0.96,5.73c0.64,1.75,1.55,3.27,2.72,4.55
			c1.18,1.28,2.6,2.28,4.27,3s3.55,1.08,5.65,1.08c1.96,0,3.81-0.34,5.55-1.01c1.73-0.67,3.19-1.49,4.37-2.44v-8.58h-10.46v-3.44
			h14.19v13.66C768.01,231.02,766.04,232.25,763.7,233.28z"/>
	</g>
</g>
</svg>
